<?xml version="1.0" encoding="UTF-8" standalone="no"?>
<!-- Uploaded to: SVG Repo, www.svgrepo.com, Transformed by: SVG Repo Mixer Tools -->

<svg
   width="800"
   height="800"
   viewBox="0 0 256 256"
   preserveAspectRatio="xMinYMin"
   fill="#000000"
   version="1.1"
   id="svg1"
   sodipodi:docname="git-icon-logo-svgrepo-com.svg"
   xml:space="preserve"
   xmlns:inkscape="http://www.inkscape.org/namespaces/inkscape"
   xmlns:sodipodi="http://sodipodi.sourceforge.net/DTD/sodipodi-0.dtd"
   xmlns="http://www.w3.org/2000/svg"
   xmlns:svg="http://www.w3.org/2000/svg"><defs
     id="defs1" /><sodipodi:namedview
     id="namedview1"
     pagecolor="#ffffff"
     bordercolor="#000000"
     borderopacity="0.25"
     inkscape:showpageshadow="2"
     inkscape:pageopacity="0.0"
     inkscape:pagecheckerboard="0"
     inkscape:deskcolor="#d1d1d1"
     showgrid="false"
     showguides="true"><sodipodi:guide
       position="336.47607,277.19534"
       orientation="0,-1"
       id="guide16"
       inkscape:locked="false" /><inkscape:page
       x="0"
       y="0"
       width="256"
       height="256"
       id="page2"
       margin="0"
       bleed="0" /></sodipodi:namedview><g
     fill="#ffffff"
     id="g19"
     transform="matrix(0.07577753,-0.07577754,0.07577754,0.07577753,-25.510345,166.58313)"
     style="fill:#0071e5;fill-opacity:1"><path
       d="m 417.61523,76.875 c -42.39203,9.424151 -84.32671,22.54494 -123.64257,42.33398 0.89912,34.71618 3.14362,67.97967 7.69336,101.76758 -15.26846,9.78214 -31.31507,18.17757 -45.57618,29.62891 -14.49005,11.14747 -29.2896,21.81231 -42.41015,34.84961 C 187.46773,268.1178 159.72502,251.82518 131.14453,237.44336 100.33705,270.59856 71.53124,306.38342 48,346.42773 c 18.493057,29.02877 38.32949,58.20569 56.69922,80.95899 v 197.7832 25.1211 22.86132 c 0.44956,0.004 0.89835,0.0209 1.34375,0.0625 l 150.66992,14.52735 c 7.89231,0.76176 14.07749,7.11448 14.62695,15.02343 l 4.64649,66.50977 131.42969,9.37891 9.05468,-61.38672 c 1.17386,-7.95891 8.00029,-13.85742 16.05078,-13.85742 h 158.96094 c 8.04633,0 14.87302,5.89851 16.04688,13.85742 l 9.05468,61.38672 131.4336,-9.37891 4.64258,-66.50977 c 0.55362,-7.90895 6.73464,-14.25751 14.62695,-15.02343 l 150.61133,-14.52735 c 0.4454,-0.0416 0.89028,-0.0583 1.33984,-0.0625 v -19.61132 l 0.0625,-0.0195 v -226.1348 c 21.2165,-26.70928 41.30684,-56.1715 56.69922,-80.95899 -23.52291,-40.04431 -52.34486,-75.82917 -83.15234,-108.98437 -28.57217,14.38182 -56.32515,30.67444 -82.53711,48.01172 -13.11639,-13.0373 -27.88953,-23.70214 -42.40039,-34.84961 -14.25695,-11.45134 -30.32318,-19.84677 -45.5625,-29.62891 4.53724,-33.78791 6.7803,-67.0514 7.68359,-101.76758 C 690.71123,99.41994 648.78198,86.299151 606.36914,76.875 c -16.9335,28.45977 -32.41939,59.27922 -45.90625,89.4082 -15.99275,-2.67239 -32.05995,-3.66203 -48.14844,-3.85351 v -0.0254 c -0.11239,0 -0.21676,0.0254 -0.3125,0.0254 -0.0999,0 -0.20478,-0.0254 -0.30468,-0.0254 v 0.0254 c -16.11763,0.19148 -32.17106,1.18112 -48.16797,3.85351 C 450.05076,136.15422 434.57371,105.33477 417.61523,76.875 Z M 298.41602,436.39844 c 50.15113,0 90.79882,40.61746 90.79882,90.75195 0,50.16779 -40.64769,90.80859 -90.79882,90.80859 -50.12617,0 -90.78711,-40.6408 -90.78711,-90.80859 0,-50.13449 40.66094,-90.75195 90.78711,-90.75195 z m 427.17773,0 c 50.122,0 90.7793,40.61746 90.7793,90.75195 0,50.16779 -40.6573,90.80859 -90.7793,90.80859 -50.15946,0 -90.80664,-40.6408 -90.80664,-90.80859 0,-50.13449 40.64718,-90.75195 90.80664,-90.75195 z m -213.59961,53.10937 c 16.14261,0 29.25391,11.90816 29.25391,26.56055 v 83.58984 c 0,14.66488 -13.1113,26.5625 -29.25391,26.5625 -16.1426,0 -29.22656,-11.89762 -29.22656,-26.5625 v -83.58984 c 0,-14.65239 13.08396,-26.56055 29.22656,-26.56055 z"
       stroke-width="4.16261"
       id="path16"
       style="fill:#0071e5;fill-opacity:1" /><path
       d="m 0,0 -1.121,-16.063 c -0.135,-1.936 -1.675,-3.477 -3.611,-3.616 l -38.555,-2.751 c -0.094,-0.007 -0.188,-0.01 -0.281,-0.01 -1.916,0 -3.569,1.406 -3.852,3.33 l -2.211,14.994 H -81.09 l -2.211,-14.994 c -0.297,-2.018 -2.101,-3.469 -4.133,-3.32 l -38.555,2.751 c -1.936,0.139 -3.476,1.68 -3.611,3.616 L -130.721,0 -163.268,3.138 c 0.015,-3.498 0.06,-7.33 0.06,-8.093 0,-34.374 43.605,-50.896 97.781,-51.086 h 0.066 0.067 c 54.176,0.19 97.766,16.712 97.766,51.086 0,0.777 0.047,4.593 0.063,8.093 z"
       transform="matrix(4.162611,0,0,-4.162611,784.07144,718.72312)"
       id="path17"
       style="fill:#0071e5;fill-opacity:1" /><path
       d="m 425.90002,521.44479 c -2.7148,61.32887 -54.62111,113.23518 -115.99602,115.95202 -61.34422,2.71548 -108.88061,-44.78886 -106.16581,-106.11774 2.7148,-61.32888 54.65383,-113.28257 115.99806,-115.99806 61.37491,-2.71684 108.87857,44.8349 106.16377,106.16378"
       id="path18"
       style="fill:#0071e5;fill-opacity:1;stroke-width:7.66434" /><path
       d="m 0,0 c 0,-7.994 6.477,-14.473 14.471,-14.473 8.002,0 14.479,6.479 14.479,14.473 0,7.994 -6.477,14.479 -14.479,14.479 C 6.477,14.479 0,7.994 0,0"
       transform="matrix(4.162611,0,0,-4.162611,656.64056,532.53707)"
       id="path19"
       style="fill:#0071e5;fill-opacity:1" /><path
       style="fill:#ffffff;fill-opacity:1;stroke-width:4.53963"
       id="path20"
       transform="scale(-1)"
       sodipodi:type="arc"
       sodipodi:cx="-302.91348"
       sodipodi:cy="-504.3147"
       sodipodi:rx="93.019623"
       sodipodi:ry="94.680695"
       sodipodi:start="0"
       sodipodi:end="3.1415927"
       sodipodi:arc-type="slice"
       d="m -209.89386,-504.3147 a 93.019623,94.680695 0 0 1 -46.50981,81.99589 93.019623,94.680695 0 0 1 -93.01963,0 93.019623,94.680695 0 0 1 -46.50981,-81.99589 h 93.01963 z" /><path
       style="fill:#ffffff;fill-opacity:1;stroke-width:4.53963"
       id="path21"
       transform="scale(-1)"
       sodipodi:type="arc"
       sodipodi:cx="-302.91348"
       sodipodi:cy="-504.3147"
       sodipodi:rx="93.019623"
       sodipodi:ry="94.680695"
       sodipodi:start="0"
       sodipodi:end="3.1415927"
       sodipodi:arc-type="slice"
       d="m -209.89386,-504.3147 a 93.019623,94.680695 0 0 1 -46.50981,81.99589 93.019623,94.680695 0 0 1 -93.01963,0 93.019623,94.680695 0 0 1 -46.50981,-81.99589 h 93.01963 z" /></g><g
     fill="#ffffff"
     id="g12"
     transform="matrix(0.09280815,0.0535828,-0.0535828,0.09280815,175.73857,-26.80692)"
     style="fill:#0071e5;fill-opacity:1"><path
       d="m 417.61523,76.875 c -42.39203,9.424151 -84.32671,22.54494 -123.64257,42.33398 0.89912,34.71618 3.14362,67.97967 7.69336,101.76758 -15.26846,9.78214 -31.31507,18.17757 -45.57618,29.62891 -14.49005,11.14747 -29.2896,21.81231 -42.41015,34.84961 C 187.46773,268.1178 159.72502,251.82518 131.14453,237.44336 100.33705,270.59856 71.53124,306.38342 48,346.42773 c 18.493057,29.02877 38.32949,58.20569 56.69922,80.95899 v 197.7832 25.1211 22.86132 c 0.44956,0.004 0.89835,0.0209 1.34375,0.0625 l 150.66992,14.52735 c 7.89231,0.76176 14.07749,7.11448 14.62695,15.02343 l 4.64649,66.50977 131.42969,9.37891 9.05468,-61.38672 c 1.17386,-7.95891 8.00029,-13.85742 16.05078,-13.85742 h 158.96094 c 8.04633,0 14.87302,5.89851 16.04688,13.85742 l 9.05468,61.38672 131.4336,-9.37891 4.64258,-66.50977 c 0.55362,-7.90895 6.73464,-14.25751 14.62695,-15.02343 l 150.61133,-14.52735 c 0.4454,-0.0416 0.89028,-0.0583 1.33984,-0.0625 v -19.61132 l 0.0625,-0.0195 v -226.1348 c 21.2165,-26.70928 41.30684,-56.1715 56.69922,-80.95899 -23.52291,-40.04431 -52.34486,-75.82917 -83.15234,-108.98437 -28.57217,14.38182 -56.32515,30.67444 -82.53711,48.01172 -13.11639,-13.0373 -27.88953,-23.70214 -42.40039,-34.84961 -14.25695,-11.45134 -30.32318,-19.84677 -45.5625,-29.62891 4.53724,-33.78791 6.7803,-67.0514 7.68359,-101.76758 C 690.71123,99.41994 648.78198,86.299151 606.36914,76.875 c -16.9335,28.45977 -32.41939,59.27922 -45.90625,89.4082 -15.99275,-2.67239 -32.05995,-3.66203 -48.14844,-3.85351 v -0.0254 c -0.11239,0 -0.21676,0.0254 -0.3125,0.0254 -0.0999,0 -0.20478,-0.0254 -0.30468,-0.0254 v 0.0254 c -16.11763,0.19148 -32.17106,1.18112 -48.16797,3.85351 C 450.05076,136.15422 434.57371,105.33477 417.61523,76.875 Z M 298.41602,436.39844 c 50.15113,0 90.79882,40.61746 90.79882,90.75195 0,50.16779 -40.64769,90.80859 -90.79882,90.80859 -50.12617,0 -90.78711,-40.6408 -90.78711,-90.80859 0,-50.13449 40.66094,-90.75195 90.78711,-90.75195 z m 427.17773,0 c 50.122,0 90.7793,40.61746 90.7793,90.75195 0,50.16779 -40.6573,90.80859 -90.7793,90.80859 -50.15946,0 -90.80664,-40.6408 -90.80664,-90.80859 0,-50.13449 40.64718,-90.75195 90.80664,-90.75195 z m -213.59961,53.10937 c 16.14261,0 29.25391,11.90816 29.25391,26.56055 v 83.58984 c 0,14.66488 -13.1113,26.5625 -29.25391,26.5625 -16.1426,0 -29.22656,-11.89762 -29.22656,-26.5625 v -83.58984 c 0,-14.65239 13.08396,-26.56055 29.22656,-26.56055 z"
       stroke-width="4.16261"
       id="path9"
       style="fill:#0071e5;fill-opacity:1" /><path
       d="m 0,0 -1.121,-16.063 c -0.135,-1.936 -1.675,-3.477 -3.611,-3.616 l -38.555,-2.751 c -0.094,-0.007 -0.188,-0.01 -0.281,-0.01 -1.916,0 -3.569,1.406 -3.852,3.33 l -2.211,14.994 H -81.09 l -2.211,-14.994 c -0.297,-2.018 -2.101,-3.469 -4.133,-3.32 l -38.555,2.751 c -1.936,0.139 -3.476,1.68 -3.611,3.616 L -130.721,0 -163.268,3.138 c 0.015,-3.498 0.06,-7.33 0.06,-8.093 0,-34.374 43.605,-50.896 97.781,-51.086 h 0.066 0.067 c 54.176,0.19 97.766,16.712 97.766,51.086 0,0.777 0.047,4.593 0.063,8.093 z"
       transform="matrix(4.162611,0,0,-4.162611,784.07144,718.72312)"
       id="path10"
       style="fill:#0071e5;fill-opacity:1" /><path
       d="m 0,0 c 0,-7.994 -6.479,-14.473 -14.479,-14.473 -7.996,0 -14.479,6.479 -14.479,14.473 0,7.994 6.483,14.479 14.479,14.479 C -6.479,14.479 0,7.994 0,0"
       transform="matrix(4.162611,0,0,-4.162611,367.36686,532.53707)"
       id="path11"
       style="fill:#0071e5;fill-opacity:1" /><path
       d="m 0,0 c 0,-7.994 6.477,-14.473 14.471,-14.473 8.002,0 14.479,6.479 14.479,14.473 0,7.994 -6.477,14.479 -14.479,14.479 C 6.477,14.479 0,7.994 0,0"
       id="path12"
       style="fill:#0071e5;fill-opacity:1"
       transform="matrix(4.162611,0,0,-4.162611,656.64056,532.53707)" /></g><g
     id="SVGRepo_iconCarrier"
     style="fill:#000000;fill-opacity:1"
     transform="matrix(0.91573319,0,0,0.91573319,10.898005,10.311898)"><path
       d="M 251.172,116.594 139.4,4.828 c -6.433,-6.437 -16.873,-6.437 -23.314,0 l -23.21,23.21 29.443,29.443 c 6.842,-2.312 14.688,-0.761 20.142,4.693 5.48,5.489 7.02,13.402 4.652,20.266 l 28.375,28.376 c 6.865,-2.365 14.786,-0.835 20.269,4.657 7.663,7.66 7.663,20.075 0,27.74 -7.665,7.666 -20.08,7.666 -27.749,0 -5.764,-5.77 -7.188,-14.235 -4.27,-21.336 l -26.462,-26.462 -0.003,69.637 a 19.82,19.82 0 0 1 5.188,3.71 c 7.663,7.66 7.663,20.076 0,27.747 -7.665,7.662 -20.086,7.662 -27.74,0 -7.663,-7.671 -7.663,-20.086 0,-27.746 a 19.654,19.654 0 0 1 6.421,-4.281 V 94.196 a 19.378,19.378 0 0 1 -6.421,-4.281 c -5.806,-5.798 -7.202,-14.317 -4.227,-21.446 L 81.47,39.442 4.83,116.077 c -6.44,6.443 -6.44,16.884 0,23.322 l 111.774,111.768 c 6.435,6.438 16.873,6.438 23.316,0 L 251.171,139.918 c 6.438,-6.44 6.438,-16.887 0,-23.324"
       fill="#000000"
       id="path1"
       style="fill:#000000;fill-opacity:1" /></g></svg>
